HIERARCHY
ROOT root
{
	OFFSET 0.000000 0.000000 0.000000
	CHANNELS 6 Xposition Yposition Zposition Zrotation Yrotation Xrotation
	JOINT lhip
	{
		OFFSET 0.058581 -0.082280 -0.017664
		CHANNELS 3 Zrotation Yrotation Xrotation
		JOINT lknee
		{
			OFFSET 0.043451 -0.386469 0.008037
			CHANNELS 3 Zrotation Yrotation Xrotation
			JOINT lankle
			{
				OFFSET -0.014790 -0.426874 -0.037428
				CHANNELS 3 Zrotation Yrotation Xrotation
				JOINT ltoe
				{
					OFFSET 0.041054 -0.060286 0.122042
					CHANNELS 3 Zrotation Yrotation Xrotation
					End Site
					{
						OFFSET 0.000000 0.000000 0.000000
					}
				}
			}
		}
	}
	JOINT rhip
	{
		OFFSET -0.060310 -0.090513 -0.013543
		CHANNELS 3 Zrotation Yrotation Xrotation
		JOINT rknee
		{
			OFFSET -0.043257 -0.383688 -0.004843
			CHANNELS 3 Zrotation Yrotation Xrotation
			JOINT rankle
			{
				OFFSET 0.019056 -0.420046 -0.034562
				CHANNELS 3 Zrotation Yrotation Xrotation
				JOINT rtoe
				{
					OFFSET -0.034840 -0.062106 0.130323
					CHANNELS 3 Zrotation Yrotation Xrotation
					End Site
					{
						OFFSET 0.000000 0.000000 0.000000
					}
				}
			}
		}
	}
	JOINT lowerback
	{
		OFFSET 0.004439 0.124404 -0.038385
		CHANNELS 3 Zrotation Yrotation Xrotation
		JOINT upperback
		{
			OFFSET 0.004488 0.137956 0.026820
			CHANNELS 3 Zrotation Yrotation Xrotation
			JOINT chest
			{
				OFFSET -0.002265 0.056032 0.002855
				CHANNELS 3 Zrotation Yrotation Xrotation
				JOINT lowerneck
				{
					OFFSET -0.013390 0.211636 -0.033468
					CHANNELS 3 Zrotation Yrotation Xrotation
					JOINT upperneck
					{
						OFFSET 0.010113 0.088937 0.050410
						CHANNELS 3 Zrotation Yrotation Xrotation
						End Site
						{
							OFFSET 0.000000 0.000000 0.000000
						}
					}
				}
				JOINT lclavicle
				{
					OFFSET 0.071702 0.114000 -0.018898
					CHANNELS 3 Zrotation Yrotation Xrotation
					JOINT lshoulder
					{
						OFFSET 0.122921 0.045205 -0.019046
						CHANNELS 3 Zrotation Yrotation Xrotation
						JOINT lelbow
						{
							OFFSET 0.255332 -0.015649 -0.022946
							CHANNELS 3 Zrotation Yrotation Xrotation
							JOINT lwrist
							{
								OFFSET 0.265709 0.012698 -0.007375
								CHANNELS 3 Zrotation Yrotation Xrotation
								End Site
								{
									OFFSET 0.000000 0.000000 0.000000
								}
							}
						}
					}
				}
				JOINT rclavicle
				{
					OFFSET -0.082954 0.112472 -0.023707
					CHANNELS 3 Zrotation Yrotation Xrotation
					JOINT rshoulder
					{
						OFFSET -0.113228 0.046853 -0.008472
						CHANNELS 3 Zrotation Yrotation Xrotation
						JOINT relbow
						{
							OFFSET -0.260127 -0.014369 -0.031269
							CHANNELS 3 Zrotation Yrotation Xrotation
							JOINT rwrist
							{
								OFFSET -0.269108 0.006794 -0.006027
								CHANNELS 3 Zrotation Yrotation Xrotation
								End Site
								{
									OFFSET 0.000000 0.000000 0.000000
								}
							}
						}
					}
				}
			}
		}
	}
}
MOTION
Frames: 14
Frame Time: 0.033333
-0.925047 -0.252936 0.971658 173.565262 2.047974 90.405166 12.764041 3.658733 1.240350 -3.411628 0.533269 1.426162 2.650201 6.270590 -9.023493 0.000000 -0.000000 0.000000 -9.381873 -6.545857 -6.405570 0.005939 -4.869365 13.858702 5.771368 -6.118256 -6.603035 0.000000 -0.000000 0.000000 2.772443 1.125057 6.332283 2.841461 -1.009325 -0.308119 -1.659269 2.268596 -3.711529 -0.338321 -1.799430 -4.266605 4.003271 -1.314151 6.125971 -24.725668 -12.618101 3.261719 -53.643988 -14.830775 17.454020 31.903158 -86.128710 -24.303403 31.508274 6.480957 -22.842338 17.877688 17.116487 4.070310 60.419713 13.511890 20.950466 -88.542776 68.310948 -76.625984 -21.720498 1.392558 -4.453330 
-0.925435 -0.251950 0.972133 173.516961 2.045374 90.447438 12.746560 3.653107 1.135912 -3.419056 0.585506 1.553575 2.652575 6.295953 -9.070655 0.000000 -0.000000 0.000000 -9.379193 -6.527102 -6.542927 -0.010272 -4.850363 13.977841 5.769673 -6.126192 -6.605579 0.000000 -0.000000 0.000000 2.772046 1.122325 6.371163 2.847472 -0.982699 -0.357499 -1.646008 2.278715 -3.721542 -0.313300 -1.752820 -4.366375 3.931324 -1.306907 6.232157 -24.688972 -12.680425 3.217682 -53.639569 -14.978769 17.413515 34.062199 -86.034531 -26.440286 31.497554 6.490514 -22.895240 17.864295 17.244386 4.028593 60.331026 13.816013 20.944089 -88.039857 68.239937 -76.167906 -21.753711 1.346343 -4.548543 
-0.925454 -0.251958 0.972135 173.511003 2.044666 90.452089 12.744395 3.652762 1.123595 -3.420000 0.591204 1.568969 2.652615 6.298255 -9.074725 0.000000 -0.000000 0.000000 -9.379494 -6.524833 -6.557888 -0.011884 -4.848235 13.990081 5.771242 -6.127514 -6.603795 0.000000 -0.000000 0.000000 2.771877 1.121568 6.374619 2.847247 -0.980267 -0.361772 -1.644425 2.279585 -3.721312 -0.309321 -1.746806 -4.378051 3.923668 -1.304293 6.244425 -24.682802 -12.688709 3.212749 -53.638207 -14.997286 17.408523 34.274274 -86.022105 -26.648563 31.496198 6.489274 -22.897760 17.860079 17.259566 4.024519 60.324947 13.850614 20.942978 -87.973244 68.230346 -76.107610 -21.753952 1.341842 -4.562716 
-0.928011 -0.251986 0.973147 172.825596 1.934517 90.920236 12.408122 3.698915 -0.273668 -3.495134 1.095838 3.502510 2.706407 6.573806 -9.515717 0.000000 -0.000000 0.000000 -9.456772 -6.316951 -8.234914 -0.145431 -4.570055 15.467683 5.900785 -6.308989 -6.544566 0.000000 -0.000000 0.000000 2.772020 1.114403 6.896725 2.765458 -0.791525 -0.800214 -1.497788 2.429504 -3.781630 0.152478 -1.097263 -5.758789 3.091421 -0.994085 7.652131 -24.026487 -13.925406 2.533034 -52.860113 -17.369592 16.407025 48.772646 -84.216017 -40.840825 31.106408 6.237344 -22.761509 17.648481 19.398775 3.688734 59.593107 17.847507 20.384599 -79.606969 66.536363 -68.786664 -20.853355 1.606380 -6.398772 
-0.928403 -0.250602 0.973599 172.812854 1.937419 90.935882 12.400333 3.701828 -0.301665 -3.497097 1.110258 3.556466 2.704106 6.570298 -9.526236 0.000000 -0.000000 0.000000 -9.456633 -6.318092 -8.257897 -0.150793 -4.580738 15.495069 5.891604 -6.291607 -6.542120 0.000000 -0.000000 0.000000 2.777190 1.127135 6.923809 2.766192 -0.786832 -0.816463 -1.500275 2.453724 -3.808040 0.153339 -1.074611 -5.776463 3.089838 -1.041810 7.655966 -23.993238 -14.008231 2.491695 -52.804869 -17.474129 16.367094 48.966482 -84.113075 -41.042971 31.080415 6.208060 -22.731472 17.666479 19.499912 3.686251 59.598627 17.960950 20.373353 -79.392511 66.440008 -68.621858 -20.857889 1.550235 -6.473852 
-0.928404 -0.250609 0.973598 172.812200 1.937342 90.936332 12.400102 3.701900 -0.303444 -3.497175 1.111407 3.558931 2.703712 6.569814 -9.526609 0.000000 -0.000000 0.000000 -9.456676 -6.318051 -8.259034 -0.151189 -4.581472 15.495559 5.891733 -6.290575 -6.541336 0.000000 -0.000000 0.000000 2.777133 1.127547 6.924907 2.766116 -0.786973 -0.816416 -1.500525 2.454744 -3.808537 0.153518 -1.073284 -5.778241 3.089747 -1.045069 7.656472 -23.991569 -14.013025 2.490355 -52.802873 -17.480170 16.365200 48.966052 -84.105818 -41.042856 31.078049 6.206353 -22.730977 17.667501 19.505319 3.686421 59.600318 17.967248 20.372816 -79.381951 66.432549 -68.612305 -20.857732 1.548722 -6.476024 
-0.929226 -0.252396 0.973535 172.656058 1.859156 91.141121 12.234424 3.701447 -1.138661 -3.515307 1.705688 4.759923 2.414830 6.239462 -9.754603 0.000000 -0.000000 0.000000 -9.557900 -6.369554 -8.547158 -0.383869 -5.013025 15.495298 6.059098 -5.768877 -6.086551 0.000000 -0.000000 0.000000 2.631708 1.450812 7.620536 2.838353 -0.912350 -0.836408 -1.520998 2.961475 -4.093206 0.395315 -0.074612 -7.090300 2.963028 -2.859459 8.211347 -23.357862 -16.821299 1.718334 -51.275069 -20.908439 15.036820 44.576190 -79.765286 -37.059993 29.462946 5.027331 -22.994709 18.894417 22.662741 3.896851 60.293990 21.609293 19.961426 -74.851864 61.389036 -63.946387 -20.785097 2.378308 -5.815746 
-0.929381 -0.251965 0.973576 172.662896 1.858732 91.143378 12.234098 3.698915 -1.148217 -3.515183 1.709056 4.772128 2.411812 6.233519 -9.759194 0.000000 -0.000000 0.000000 -9.559236 -6.371676 -8.545057 -0.384185 -5.019279 15.492486 6.057951 -5.767505 -6.087107 0.000000 -0.000000 0.000000 2.625197 1.457795 7.634345 2.845631 -0.915654 -0.836029 -1.518430 2.965013 -4.099052 0.400898 -0.057362 -7.107698 2.954860 -2.878919 8.220694 -23.360896 -16.854658 1.707899 -51.251770 -20.944369 15.023523 44.462421 -79.706990 -36.967128 29.455688 5.016216 -22.994960 18.929141 22.696516 3.902930 60.284725 21.656188 19.962059 -74.820133 61.335526 -63.919084 -20.826114 2.358874 -5.778053 
-0.929389 -0.251971 0.973579 172.666355 1.858589 91.143949 12.234127 3.697590 -1.154187 -3.515192 1.710409 4.778993 2.410599 6.230354 -9.761066 0.000000 -0.000000 0.000000 -9.559930 -6.372631 -8.544941 -0.384034 -5.022609 15.491662 6.057566 -5.766737 -6.087255 0.000000 -0.000000 0.000000 2.622522 1.459307 7.638812 2.849130 -0.918214 -0.835085 -1.517562 2.966276 -4.101029 0.402363 -0.050816 -7.115951 2.951611 -2.888034 8.223634 -23.362671 -16.869797 1.704711 -51.242930 -20.961469 15.017925 44.400208 -79.676669 -36.915459 29.451992 5.011167 -22.995859 18.943673 22.710630 3.905492 60.278394 21.678888 19.958741 -74.795922 61.309414 -63.896744 -20.836460 2.356417 -5.763625 
-0.930405 -0.253731 0.973587 173.369256 1.821309 91.311713 12.210733 3.489442 -2.357660 -3.470042 1.819900 6.057875 2.126817 5.709469 -10.036157 0.000000 -0.000000 0.000000 -9.721600 -6.547037 -8.534723 -0.302153 -5.529981 15.282952 6.067440 -5.770983 -6.043437 0.000000 -0.000000 0.000000 2.117694 1.519380 8.353410 3.458708 -1.280977 -0.582747 -1.347633 3.192312 -4.415189 0.571310 0.932346 -8.740946 2.419334 -4.308785 8.742570 -23.701535 -19.565172 1.187245 -49.496762 -24.088016 13.814076 35.681961 -74.126791 -30.266325 28.684408 3.901550 -23.093194 21.382485 25.321045 4.547691 58.426730 26.006091 18.613857 -69.984389 56.472591 -59.612068 -21.420386 3.618452 -3.245027 
-0.930438 -0.253671 0.973605 173.384510 1.821645 91.316173 12.209979 3.484929 -2.381099 -3.469544 1.816558 6.083317 2.122546 5.704641 -10.043026 0.000000 -0.000000 0.000000 -9.721493 -6.547619 -8.539283 -0.302508 -5.536245 15.287400 6.065659 -5.778843 -6.048211 0.000000 -0.000000 0.000000 2.116134 1.520251 8.371995 3.461344 -1.285583 -0.579851 -1.344383 3.192842 -4.423358 0.574677 0.945816 -8.767669 2.412145 -4.321543 8.744896 -23.707007 -19.622740 1.186085 -49.460503 -24.130967 13.798403 35.631766 -74.045295 -30.238267 28.665640 3.879277 -23.089170 21.400542 25.374060 4.556488 58.367781 26.073872 18.578109 -69.875738 56.395868 -59.533640 -21.449288 3.586405 -3.242697 
-0.930445 -0.253690 0.973608 173.389295 1.821311 91.317301 12.209455 3.483692 -2.388191 -3.469587 1.815309 6.090042 2.121027 5.702868 -10.044485 0.000000 -0.000000 0.000000 -9.721627 -6.547965 -8.540993 -0.303054 -5.538329 15.288609 6.065144 -5.781209 -6.049188 0.000000 -0.000000 0.000000 2.115882 1.520810 8.377359 3.460950 -1.287210 -0.578826 -1.343421 3.192183 -4.425508 0.575548 0.948646 -8.775586 2.411183 -4.323729 8.744971 -23.707660 -19.640768 1.186249 -49.450177 -24.143809 13.794027 35.624208 -74.020829 -30.235535 28.660720 3.872624 -23.088206 21.403341 25.390100 4.558232 58.350896 26.093431 18.566368 -69.840110 56.372573 -59.506438 -21.452085 3.581149 -3.244127 
-0.931461 -0.257053 0.973941 174.276110 1.696171 91.638453 12.076993 3.305123 -3.697173 -3.515518 1.461259 7.034279 1.672736 5.428539 -10.072277 0.000000 -0.000000 0.000000 -9.776287 -6.611229 -8.900845 -0.405651 -5.797726 15.340260 6.038576 -6.400101 -6.030777 0.000000 -0.000000 0.000000 2.100719 1.621777 9.269195 3.115127 -1.498559 -0.361320 -1.067140 2.895902 -4.697693 0.623396 1.131788 -10.425898 2.402402 -4.424521 8.835755 -23.673649 -23.313293 1.220956 -47.283658 -26.755451 12.723903 34.337061 -68.671485 -29.786333 27.659336 2.565025 -23.061563 21.664942 28.509581 4.792411 54.572250 29.857805 15.595272 -62.392492 51.866709 -53.632531 -20.685567 3.946172 -4.153407 
-0.931473 -0.256876 0.973979 174.281037 1.696767 91.643714 12.077752 3.306783 -3.703197 -3.517465 1.458464 7.036187 1.670330 5.425395 -10.073294 0.000000 -0.000000 0.000000 -9.774049 -6.611629 -8.904883 -0.406988 -5.800012 15.341057 6.035270 -6.404366 -6.032230 0.000000 -0.000000 0.000000 2.102040 1.621722 9.279922 3.112915 -1.500998 -0.363974 -1.068304 2.894630 -4.701535 0.620154 1.132982 -10.430286 2.402740 -4.427603 8.834938 -23.673838 -23.342334 1.215400 -47.258772 -26.782367 12.707976 34.275940 -68.600450 -29.747691 27.647773 2.551219 -23.045750 21.667483 28.532162 4.792583 54.533670 29.883247 15.574037 -62.308129 51.839724 -53.573587 -20.690086 3.927327 -4.163964 
